<?xml version="1.0" encoding="utf-8"?>
<!-- Generator: Adobe Illustrator 26.3.1, SVG Export Plug-In . SVG Version: 6.00 Build 0)  -->
<svg version="1.1" id="Layer_1" xmlns="http://www.w3.org/2000/svg" xmlns:xlink="http://www.w3.org/1999/xlink" x="0px" y="0px"
	 viewBox="0 0 700 700" style="enable-background:new 0 0 700 700;" xml:space="preserve">
<style type="text/css">
	.st0{fill:#FFFFFF;}
</style>
<path class="st0" d="M546.5,339.4c7.5,4.5,15.9,6.8,24.9,6.8c8.4,0,17.4-2.3,24.9-6.8c15.9-9.1,25.6-25.6,25.6-44.6
	c0-18.1-9.8-34.7-24.9-43.8L357.5,110.4c-4.5-3-10.6-3-15.2,0L102.9,251C87.8,260,78,276.6,78,294.8c0,18.8,9.8,34.7,25.6,44.6
	c15.9,9.1,34,9.1,49.9,0v176.8c0,24.9,20.4,45.3,45.3,45.3H501c24.9,0,45.3-20.4,45.3-45.3L546.5,339.4z M380.2,531.3h-60.5V425.5
	h60.5V531.3z M516.2,516.2c0,8.4-6.8,15.2-15.2,15.2h-90.7V410.5c0-8.4-6.8-15.2-15.2-15.2h-90.7c-8.4,0-15.2,6.8-15.2,15.2v120.8
	h-90.7c-8.4,0-15.2-6.8-15.2-15.2V322.1L350,224.6l166.2,97.5V516.2z M357.5,193.6c-4.5-3-10.6-3-15.2,0L139.2,313
	c-6.8,3.8-14.3,3.8-21.1,0c-6.8-3.8-9.8-10.6-9.8-18.1c0-7.5,3.8-14.3,9.8-18.1l231.9-136l231.9,136c6.1,3.8,9.8,10.6,9.8,18.1
	c0,7.5-3.8,14.3-10.6,18.1c-3,1.6-6.8,3-10.6,3s-7.5-0.7-10.6-3L357.5,193.6z M10,138.5C10,67.4,67.4,10,138.5,10
	c8.4,0,15.2,6.8,15.2,15.2s-6.8,15.2-15.2,15.2c-54.4,0-98.2,43.8-98.2,98.2c0,8.4-6.8,15.2-15.2,15.2C16.8,153.5,10,146.7,10,138.5
	z M153.5,100.7c0,8.4-6.8,15.2-15.2,15.2c-12.9,0-22.7,9.8-22.7,22.7c0,8.4-6.8,15.2-15.2,15.2s-15.2-6.8-15.2-15.2
	c0-29.5,23.4-52.8,52.8-52.8C146.7,85.5,153.5,92.3,153.5,100.7z M546.5,25.2c0-8.4,6.8-15.2,15.2-15.2c71,0,128.4,57.4,128.4,128.5
	c0,8.4-6.8,15.2-15.2,15.2s-15.2-6.8-15.2-15.2c0-54.4-43.8-98.2-98.2-98.2C553.3,40.2,546.5,33.4,546.5,25.2L546.5,25.2z
	 M546.5,100.7c0-8.4,6.8-15.2,15.2-15.2c29.5,0,52.8,23.4,52.8,52.8c0,8.4-6.8,15.2-15.2,15.2c-8.4,0-15.2-6.8-15.2-15.2
	c0-12.9-9.8-22.7-22.7-22.7C553.3,115.8,546.5,109,546.5,100.7L546.5,100.7z M153.5,674.8c0,8.4-6.8,15.2-15.2,15.2
	C67.4,690,10,632.6,10,561.5c0-8.4,6.8-15.2,15.2-15.2s15.2,6.8,15.2,15.2c0,54.4,43.8,98.2,98.2,98.2
	C146.7,659.8,153.5,666.6,153.5,674.8L153.5,674.8z M153.5,599.3c0,8.4-6.8,15.2-15.2,15.2c-29.5,0-52.8-23.4-52.8-52.8
	c0-8.4,6.8-15.2,15.2-15.2s15.2,6.8,15.2,15.2c0,12.9,9.8,22.7,22.7,22.7C146.7,584.2,153.5,591,153.5,599.3z M690,561.5
	c0,71-57.4,128.5-128.5,128.5c-8.4,0-15.2-6.8-15.2-15.2s6.8-15.2,15.2-15.2c54.4,0,98.2-43.8,98.2-98.2c0-8.4,6.8-15.2,15.2-15.2
	C683.2,546.5,690,553.3,690,561.5L690,561.5z M599.3,546.5c8.4,0,15.2,6.8,15.2,15.2c0,29.5-23.4,52.8-52.8,52.8
	c-8.4,0-15.2-6.8-15.2-15.2c0-8.4,6.8-15.2,15.2-15.2c12.9,0,22.7-9.8,22.7-22.7C584.2,553.3,591,546.5,599.3,546.5L599.3,546.5z"/>
</svg>
