<?xml version="1.0" encoding="utf-8"?>
<!-- Generator: Adobe Illustrator 26.3.1, SVG Export Plug-In . SVG Version: 6.00 Build 0)  -->
<svg version="1.1" id="Layer_1" xmlns="http://www.w3.org/2000/svg" xmlns:xlink="http://www.w3.org/1999/xlink" x="0px" y="0px"
	 viewBox="0 0 700 700" style="enable-background:new 0 0 700 700;" xml:space="preserve">
<style type="text/css">
	.st0{fill:#375A7F;}
	.st1{fill:#FFFFFF;}
</style>
<rect class="st0" width="700" height="700"/>
<path class="st1" d="M514.7,341.1c6.3,3.8,13.3,5.7,20.9,5.7c7,0,14.6-1.9,20.9-5.7c13.3-7.6,21.5-21.5,21.5-37.4
	c0-15.2-8.2-29.1-20.9-36.7L356.3,149.2c-3.8-2.5-8.9-2.5-12.7,0L142.9,267c-12.7,7.6-20.9,21.5-20.9,36.7
	c0,15.8,8.2,29.1,21.5,37.4c13.3,7.6,28.5,7.6,41.8,0v148.2c0,20.9,17.1,38,38,38h253.3c20.9,0,38-17.1,38-38L514.7,341.1z
	 M375.3,502h-50.7l0-88.7h50.7L375.3,502z M489.3,489.3c0,7-5.7,12.7-12.7,12.7h-76V400.7c0-7-5.7-12.7-12.7-12.7h-76
	c-7,0-12.7,5.7-12.7,12.7V502l-76,0c-7,0-12.7-5.7-12.7-12.7V326.6L350,244.9l139.3,81.7L489.3,489.3z M356.3,218.9
	c-3.8-2.5-8.9-2.5-12.7,0L173.3,319c-5.7,3.2-12,3.2-17.7,0c-5.7-3.2-8.2-8.9-8.2-15.2c0-6.3,3.2-12,8.2-15.2l194.4-114l194.4,114
	c5.1,3.2,8.2,8.9,8.2,15.2c0,6.3-3.2,12-8.9,15.2c-2.5,1.3-5.7,2.5-8.9,2.5c-3.2,0-6.3-0.6-8.9-2.5L356.3,218.9z M65,172.7
	C65,113.1,113.1,65,172.7,65c7,0,12.7,5.7,12.7,12.7c0,7-5.7,12.7-12.7,12.7c-45.6,0-82.3,36.7-82.3,82.3c0,7-5.7,12.7-12.7,12.7
	C70.7,185.3,65,179.6,65,172.7z M185.3,141c0,7-5.7,12.7-12.7,12.7c-10.8,0-19,8.2-19,19c0,7-5.7,12.7-12.7,12.7
	c-7,0-12.7-5.7-12.7-12.7c0-24.7,19.6-44.3,44.3-44.3C179.6,128.3,185.3,134,185.3,141z M514.7,77.7c0-7,5.7-12.7,12.7-12.7
	C586.9,65,635,113.1,635,172.7c0,7-5.7,12.7-12.7,12.7c-7,0-12.7-5.7-12.7-12.7c0-45.6-36.7-82.3-82.3-82.3
	C520.4,90.3,514.7,84.6,514.7,77.7L514.7,77.7z M514.7,141c0-7,5.7-12.7,12.7-12.7c24.7,0,44.3,19.6,44.3,44.3
	c0,7-5.7,12.7-12.7,12.7c-7,0-12.7-5.7-12.7-12.7c0-10.8-8.2-19-19-19C520.4,153.7,514.7,148,514.7,141L514.7,141z M185.3,622.3
	c0,7-5.7,12.7-12.7,12.7C113.1,635,65,586.9,65,527.3c0-7,5.7-12.7,12.7-12.7c7,0,12.7,5.7,12.7,12.7c0,45.6,36.7,82.3,82.3,82.3
	C179.6,609.7,185.3,615.4,185.3,622.3L185.3,622.3z M185.3,559c0,7-5.7,12.7-12.7,12.7c-24.7,0-44.3-19.6-44.3-44.3
	c0-7,5.7-12.7,12.7-12.7c7,0,12.7,5.7,12.7,12.7c0,10.8,8.2,19,19,19C179.6,546.3,185.3,552,185.3,559z M635,527.3
	c0,59.5-48.1,107.7-107.7,107.7c-7,0-12.7-5.7-12.7-12.7c0-7,5.7-12.7,12.7-12.7c45.6,0,82.3-36.7,82.3-82.3c0-7,5.7-12.7,12.7-12.7
	C629.3,514.7,635,520.4,635,527.3L635,527.3z M559,514.7c7,0,12.7,5.7,12.7,12.7c0,24.7-19.6,44.3-44.3,44.3
	c-7,0-12.7-5.7-12.7-12.7c0-7,5.7-12.7,12.7-12.7c10.8,0,19-8.2,19-19C546.3,520.4,552,514.7,559,514.7L559,514.7z"/>
</svg>
